<mxfile host="65bd71144e">
    <diagram id="dk59Ffyd__K_jxh7B8Td" name="Page-1">
        <mxGraphModel dx="1416" dy="926" grid="1" gridSize="10" guides="1" tooltips="1" connect="1" arrows="1" fold="1" page="1" pageScale="1" pageWidth="827" pageHeight="1169" math="0" shadow="0">
            <root>
                <mxCell id="0"/>
                <mxCell id="1" parent="0"/>
                <mxCell id="50" style="edgeStyle=none;html=1;exitX=1;exitY=0.5;exitDx=0;exitDy=0;exitPerimeter=0;entryX=0.5;entryY=0;entryDx=0;entryDy=0;entryPerimeter=0;fillColor=#60a917;strokeColor=#2D7600;" edge="1" parent="1" source="17" target="34">
                    <mxGeometry relative="1" as="geometry">
                        <Array as="points">
                            <mxPoint x="560" y="810"/>
                            <mxPoint x="560" y="560"/>
                            <mxPoint x="681" y="560"/>
                        </Array>
                    </mxGeometry>
                </mxCell>
                <mxCell id="48" value="" style="group" vertex="1" connectable="0" parent="1">
                    <mxGeometry x="590" y="600" width="182.5" height="440" as="geometry"/>
                </mxCell>
                <mxCell id="43" value="&lt;div style=&quot;color: rgb(204, 204, 204); font-family: Consolas, &amp;quot;Courier New&amp;quot;, monospace; font-size: 10px; line-height: 19px;&quot;&gt;&lt;div style=&quot;font-size: 14px; line-height: 19px;&quot;&gt;&lt;span style=&quot;color: rgb(86, 156, 214);&quot;&gt;f&lt;/span&gt;&lt;span style=&quot;color: rgb(206, 145, 120);&quot;&gt;&quot;Congratulations!!! You guessed the number attempts &lt;/span&gt;&lt;span style=&quot;color: rgb(86, 156, 214);&quot;&gt;{&lt;/span&gt;&lt;span style=&quot;color: rgb(156, 220, 254);&quot;&gt;attempt&lt;/span&gt;&lt;span style=&quot;color: rgb(212, 212, 212);&quot;&gt;+&lt;/span&gt;&lt;span style=&quot;color: rgb(181, 206, 168);&quot;&gt;1&lt;/span&gt;&lt;span style=&quot;color: rgb(86, 156, 214);&quot;&gt;}&lt;/span&gt;&lt;span style=&quot;color: rgb(206, 145, 120);&quot;&gt;&quot;&lt;/span&gt;&lt;/div&gt;&lt;/div&gt;" style="strokeWidth=2;html=1;shape=mxgraph.flowchart.display;whiteSpace=wrap;fontSize=10;labelPosition=center;verticalLabelPosition=middle;align=center;verticalAlign=middle;" parent="48" vertex="1">
                    <mxGeometry y="160" width="182.5" height="120" as="geometry"/>
                </mxCell>
                <mxCell id="47" value="" style="group" vertex="1" connectable="0" parent="48">
                    <mxGeometry x="21.25" width="140" height="440" as="geometry"/>
                </mxCell>
                <mxCell id="34" value="&lt;div style=&quot;font-family: Consolas, &amp;quot;Courier New&amp;quot;, monospace; font-size: 14px; line-height: 19px;&quot;&gt;&lt;div style=&quot;line-height: 19px;&quot;&gt;&lt;div style=&quot;color: rgb(204, 204, 204); line-height: 19px;&quot;&gt;&lt;div style=&quot;line-height: 19px;&quot;&gt;&lt;span style=&quot;color: rgb(197, 134, 192);&quot;&gt;elif&lt;/span&gt; &lt;span style=&quot;color: rgb(156, 220, 254);&quot;&gt;player&lt;/span&gt; &lt;span style=&quot;color: rgb(212, 212, 212);&quot;&gt;==&lt;/span&gt; &lt;span style=&quot;color: rgb(156, 220, 254);&quot;&gt;num&lt;/span&gt;:&lt;/div&gt;&lt;/div&gt;&lt;/div&gt;&lt;/div&gt;" style="strokeWidth=2;html=1;shape=mxgraph.flowchart.decision;whiteSpace=wrap;labelBackgroundColor=none;fontSize=10;" parent="47" vertex="1">
                    <mxGeometry width="140" height="100" as="geometry"/>
                </mxCell>
                <mxCell id="39" value="&lt;div style=&quot;color: rgb(204, 204, 204); font-family: Consolas, &amp;quot;Courier New&amp;quot;, monospace; font-size: 14px; line-height: 19px;&quot;&gt;&lt;span style=&quot;color: rgb(156, 220, 254);&quot;&gt;attempt&lt;/span&gt; &lt;span style=&quot;color: rgb(212, 212, 212);&quot;&gt;+=&lt;/span&gt; &lt;span style=&quot;color: rgb(181, 206, 168);&quot;&gt;1&lt;/span&gt;&lt;/div&gt;" style="rounded=1;whiteSpace=wrap;html=1;absoluteArcSize=1;arcSize=14;strokeWidth=2;labelBackgroundColor=none;fontSize=10;fontColor=none;" parent="47" vertex="1">
                    <mxGeometry x="5.5" y="320" width="129" height="40" as="geometry"/>
                </mxCell>
                <mxCell id="42" value="&lt;div style=&quot;font-family: Consolas, &amp;quot;Courier New&amp;quot;, monospace; font-size: 14px; line-height: 19px;&quot;&gt;&lt;div style=&quot;color: rgb(204, 204, 204); line-height: 19px;&quot;&gt;&lt;span style=&quot;color: rgb(197, 134, 192);&quot;&gt;break&lt;/span&gt;&lt;/div&gt;&lt;/div&gt;" style="rounded=1;whiteSpace=wrap;html=1;absoluteArcSize=1;arcSize=14;strokeWidth=2;labelBackgroundColor=none;fontSize=10;fontColor=none;" parent="47" vertex="1">
                    <mxGeometry x="5.5" y="400" width="129" height="40" as="geometry"/>
                </mxCell>
                <mxCell id="46" style="edgeStyle=none;html=1;exitX=0.5;exitY=1;exitDx=0;exitDy=0;entryX=0.5;entryY=0;entryDx=0;entryDy=0;labelBackgroundColor=#B3FF66;fontSize=10;fontColor=#B3FF66;" parent="47" source="39" target="42" edge="1">
                    <mxGeometry relative="1" as="geometry"/>
                </mxCell>
                <mxCell id="44" style="edgeStyle=none;html=1;exitX=0.5;exitY=1;exitDx=0;exitDy=0;exitPerimeter=0;entryX=0.5;entryY=0;entryDx=0;entryDy=0;entryPerimeter=0;labelBackgroundColor=#B3FF66;fontSize=10;fontColor=#B3FF66;" parent="48" source="34" target="43" edge="1">
                    <mxGeometry relative="1" as="geometry"/>
                </mxCell>
                <mxCell id="45" style="edgeStyle=none;html=1;exitX=0.5;exitY=1;exitDx=0;exitDy=0;exitPerimeter=0;entryX=0.5;entryY=0;entryDx=0;entryDy=0;labelBackgroundColor=#B3FF66;fontSize=10;fontColor=#B3FF66;" parent="48" source="43" target="39" edge="1">
                    <mxGeometry relative="1" as="geometry"/>
                </mxCell>
                <mxCell id="51" value="" style="group" vertex="1" connectable="0" parent="1">
                    <mxGeometry x="80" y="730" width="140" height="310" as="geometry"/>
                </mxCell>
                <mxCell id="25" value="&lt;div style=&quot;font-family: Consolas, &amp;quot;Courier New&amp;quot;, monospace; font-size: 14px; line-height: 19px;&quot;&gt;&lt;div style=&quot;line-height: 19px;&quot;&gt;&lt;div style=&quot;color: rgb(204, 204, 204); line-height: 19px;&quot;&gt;&lt;span style=&quot;color: rgb(197, 134, 192);&quot;&gt;elif&lt;/span&gt; &lt;span style=&quot;color: rgb(156, 220, 254);&quot;&gt;player&lt;/span&gt; &lt;span style=&quot;color: rgb(212, 212, 212);&quot;&gt;&amp;lt;&lt;/span&gt; &lt;span style=&quot;color: rgb(156, 220, 254);&quot;&gt;num&lt;/span&gt;:&lt;/div&gt;&lt;/div&gt;&lt;/div&gt;" style="strokeWidth=2;html=1;shape=mxgraph.flowchart.decision;whiteSpace=wrap;labelBackgroundColor=none;fontSize=10;" parent="51" vertex="1">
                    <mxGeometry width="140" height="100" as="geometry"/>
                </mxCell>
                <mxCell id="29" value="&lt;div style=&quot;color: rgb(204, 204, 204); font-family: Consolas, &amp;quot;Courier New&amp;quot;, monospace; font-size: 14px; line-height: 19px;&quot;&gt;&lt;div style=&quot;line-height: 19px;&quot;&gt;&lt;span style=&quot;color: rgb(206, 145, 120);&quot;&gt;&quot;Too low, Try again&quot;&lt;/span&gt;&lt;/div&gt;&lt;/div&gt;" style="strokeWidth=2;html=1;shape=mxgraph.flowchart.display;whiteSpace=wrap;labelBackgroundColor=none;fontSize=10;fontColor=none;" parent="51" vertex="1">
                    <mxGeometry x="20.5" y="150" width="99" height="60" as="geometry"/>
                </mxCell>
                <mxCell id="30" style="edgeStyle=none;html=1;exitX=0.5;exitY=1;exitDx=0;exitDy=0;exitPerimeter=0;entryX=0.5;entryY=0;entryDx=0;entryDy=0;entryPerimeter=0;fontSize=10;fontColor=#FFFFFF;" parent="51" source="25" target="29" edge="1">
                    <mxGeometry relative="1" as="geometry"/>
                </mxCell>
                <mxCell id="31" value="Yes" style="text;html=1;strokeColor=none;fillColor=none;align=center;verticalAlign=middle;whiteSpace=wrap;rounded=0;labelBackgroundColor=none;fontSize=10;fontColor=#FFFFFF;" parent="51" vertex="1">
                    <mxGeometry x="70" y="110" width="60" height="30" as="geometry"/>
                </mxCell>
                <mxCell id="32" value="&lt;div style=&quot;color: rgb(204, 204, 204); font-family: Consolas, &amp;quot;Courier New&amp;quot;, monospace; font-size: 14px; line-height: 19px;&quot;&gt;&lt;span style=&quot;color: rgb(156, 220, 254);&quot;&gt;attempt&lt;/span&gt; &lt;span style=&quot;color: rgb(212, 212, 212);&quot;&gt;+=&lt;/span&gt; &lt;span style=&quot;color: rgb(181, 206, 168);&quot;&gt;1&lt;/span&gt;&lt;/div&gt;" style="rounded=1;whiteSpace=wrap;html=1;absoluteArcSize=1;arcSize=14;strokeWidth=2;labelBackgroundColor=none;fontSize=10;fontColor=none;" parent="51" vertex="1">
                    <mxGeometry x="5.5" y="270" width="129" height="40" as="geometry"/>
                </mxCell>
                <mxCell id="33" style="edgeStyle=none;html=1;exitX=0.5;exitY=1;exitDx=0;exitDy=0;exitPerimeter=0;entryX=0.5;entryY=0;entryDx=0;entryDy=0;fontSize=10;fontColor=#FFFFFF;" parent="51" source="29" target="32" edge="1">
                    <mxGeometry relative="1" as="geometry"/>
                </mxCell>
                <mxCell id="52" value="" style="group" vertex="1" connectable="0" parent="1">
                    <mxGeometry x="288" y="40" width="250" height="1000" as="geometry"/>
                </mxCell>
                <mxCell id="2" value="Start" style="strokeWidth=2;html=1;shape=mxgraph.flowchart.start_1;whiteSpace=wrap;" parent="52" vertex="1">
                    <mxGeometry x="90" width="70" height="40" as="geometry"/>
                </mxCell>
                <mxCell id="4" value="&lt;div style=&quot;color: rgb(204, 204, 204); font-family: Consolas, &amp;quot;Courier New&amp;quot;, monospace; font-size: 10px; line-height: 19px;&quot;&gt;&lt;span style=&quot;color: rgb(206, 145, 120); font-size: 10px;&quot;&gt;&quot;***Welcome to the Number Guessing Game! ***&lt;/span&gt;&lt;span style=&quot;color: rgb(215, 186, 125); font-size: 10px;&quot;&gt;\n&lt;/span&gt;&lt;span style=&quot;color: rgb(206, 145, 120); font-size: 10px;&quot;&gt;I'm thinking of number between 1 and 100. Can you guess it?&quot;&lt;/span&gt;&lt;/div&gt;" style="strokeWidth=2;html=1;shape=mxgraph.flowchart.display;whiteSpace=wrap;fontSize=10;labelPosition=center;verticalLabelPosition=middle;align=center;verticalAlign=middle;" parent="52" vertex="1">
                    <mxGeometry y="80" width="250" height="160" as="geometry"/>
                </mxCell>
                <mxCell id="5" style="edgeStyle=none;html=1;exitX=0.5;exitY=1;exitDx=0;exitDy=0;exitPerimeter=0;entryX=0.5;entryY=0;entryDx=0;entryDy=0;entryPerimeter=0;fontSize=10;" parent="52" source="2" target="4" edge="1">
                    <mxGeometry relative="1" as="geometry"/>
                </mxCell>
                <mxCell id="6" value="&lt;div style=&quot;color: rgb(204, 204, 204); font-family: Consolas, &amp;quot;Courier New&amp;quot;, monospace; font-size: 14px; line-height: 19px;&quot;&gt;&lt;span style=&quot;color: rgb(156, 220, 254);&quot;&gt;num&lt;/span&gt; &lt;span style=&quot;color: rgb(212, 212, 212);&quot;&gt;=&lt;/span&gt; &lt;span style=&quot;color: rgb(78, 201, 176);&quot;&gt;random&lt;/span&gt;.&lt;span style=&quot;color: rgb(156, 220, 254);&quot;&gt;randrange&lt;/span&gt;(&lt;span style=&quot;color: rgb(181, 206, 168);&quot;&gt;1&lt;/span&gt;,&lt;span style=&quot;color: rgb(181, 206, 168);&quot;&gt;100&lt;/span&gt;)&lt;/div&gt;" style="rounded=1;whiteSpace=wrap;html=1;absoluteArcSize=1;arcSize=14;strokeWidth=2;labelBackgroundColor=none;fontSize=10;" parent="52" vertex="1">
                    <mxGeometry y="280" width="250" height="40" as="geometry"/>
                </mxCell>
                <mxCell id="7" style="edgeStyle=none;html=1;exitX=0.5;exitY=1;exitDx=0;exitDy=0;exitPerimeter=0;fontSize=10;" parent="52" source="4" target="6" edge="1">
                    <mxGeometry relative="1" as="geometry"/>
                </mxCell>
                <mxCell id="8" value="&lt;div style=&quot;color: rgb(204, 204, 204); font-family: Consolas, &amp;quot;Courier New&amp;quot;, monospace; font-size: 14px; line-height: 19px;&quot;&gt;&lt;span style=&quot;color: rgb(156, 220, 254);&quot;&gt;attempt&lt;/span&gt; &lt;span style=&quot;color: rgb(212, 212, 212);&quot;&gt;=&lt;/span&gt; &lt;span style=&quot;color: rgb(181, 206, 168);&quot;&gt;0&lt;/span&gt;&lt;/div&gt;" style="rounded=1;whiteSpace=wrap;html=1;absoluteArcSize=1;arcSize=14;strokeWidth=2;labelBackgroundColor=none;fontSize=10;" parent="52" vertex="1">
                    <mxGeometry x="74" y="360" width="100" height="40" as="geometry"/>
                </mxCell>
                <mxCell id="10" style="edgeStyle=none;html=1;exitX=0.5;exitY=1;exitDx=0;exitDy=0;entryX=0.5;entryY=0;entryDx=0;entryDy=0;fontSize=10;" parent="52" source="6" target="8" edge="1">
                    <mxGeometry relative="1" as="geometry"/>
                </mxCell>
                <mxCell id="11" value="&lt;div style=&quot;color: rgb(204, 204, 204); font-family: Consolas, &amp;quot;Courier New&amp;quot;, monospace; font-size: 14px; line-height: 19px;&quot;&gt;&lt;span style=&quot;color: rgb(197, 134, 192);&quot;&gt;while&lt;/span&gt; &lt;span style=&quot;color: rgb(86, 156, 214);&quot;&gt;True&lt;/span&gt;:&lt;/div&gt;" style="strokeWidth=2;html=1;shape=mxgraph.flowchart.decision;whiteSpace=wrap;labelBackgroundColor=none;fontSize=10;" parent="52" vertex="1">
                    <mxGeometry x="64.5" y="445" width="119" height="100" as="geometry"/>
                </mxCell>
                <mxCell id="12" style="edgeStyle=none;html=1;exitX=0.5;exitY=1;exitDx=0;exitDy=0;entryX=0.5;entryY=0;entryDx=0;entryDy=0;entryPerimeter=0;fontSize=10;" parent="52" source="8" target="11" edge="1">
                    <mxGeometry relative="1" as="geometry"/>
                </mxCell>
                <mxCell id="14" value="&lt;div style=&quot;color: rgb(204, 204, 204); font-family: Consolas, &amp;quot;Courier New&amp;quot;, monospace; font-size: 14px; line-height: 19px;&quot;&gt;&lt;span style=&quot;color: rgb(156, 220, 254);&quot;&gt;player&lt;/span&gt; &lt;span style=&quot;color: rgb(212, 212, 212);&quot;&gt;=&lt;/span&gt; &lt;span style=&quot;color: rgb(78, 201, 176);&quot;&gt;int&lt;/span&gt;(&lt;span style=&quot;color: rgb(220, 220, 170);&quot;&gt;input&lt;/span&gt;(&lt;span style=&quot;color: rgb(206, 145, 120);&quot;&gt;&quot;Enter your guess: &quot;&lt;/span&gt;))&lt;/div&gt;" style="html=1;strokeWidth=2;shape=manualInput;whiteSpace=wrap;rounded=1;size=26;arcSize=11;labelBackgroundColor=none;fontSize=10;fontColor=none;" parent="52" vertex="1">
                    <mxGeometry x="44" y="600" width="160" height="80" as="geometry"/>
                </mxCell>
                <mxCell id="15" style="edgeStyle=none;html=1;exitX=0.5;exitY=1;exitDx=0;exitDy=0;exitPerimeter=0;entryX=0.5;entryY=0;entryDx=0;entryDy=0;fontSize=10;fontColor=none;" parent="52" source="11" target="14" edge="1">
                    <mxGeometry relative="1" as="geometry"/>
                </mxCell>
                <mxCell id="17" value="&lt;div style=&quot;color: rgb(204, 204, 204); font-family: Consolas, &amp;quot;Courier New&amp;quot;, monospace; font-size: 14px; line-height: 19px;&quot;&gt;&lt;div style=&quot;line-height: 19px;&quot;&gt;&lt;span style=&quot;color: rgb(197, 134, 192);&quot;&gt;if&lt;/span&gt; &lt;span style=&quot;color: rgb(156, 220, 254);&quot;&gt;player&lt;/span&gt; &lt;span style=&quot;color: rgb(212, 212, 212);&quot;&gt;&amp;gt;&lt;/span&gt; &lt;span style=&quot;color: rgb(156, 220, 254);&quot;&gt;num&lt;/span&gt;:&lt;/div&gt;&lt;/div&gt;" style="strokeWidth=2;html=1;shape=mxgraph.flowchart.decision;whiteSpace=wrap;labelBackgroundColor=none;fontSize=10;" parent="52" vertex="1">
                    <mxGeometry x="64" y="720" width="119.5" height="100" as="geometry"/>
                </mxCell>
                <mxCell id="18" style="edgeStyle=none;html=1;exitX=0.5;exitY=1;exitDx=0;exitDy=0;entryX=0.5;entryY=0;entryDx=0;entryDy=0;entryPerimeter=0;fontSize=10;fontColor=none;" parent="52" source="14" target="17" edge="1">
                    <mxGeometry relative="1" as="geometry"/>
                </mxCell>
                <mxCell id="19" value="&lt;div style=&quot;color: rgb(204, 204, 204); font-family: Consolas, &amp;quot;Courier New&amp;quot;, monospace; font-size: 14px; line-height: 19px;&quot;&gt;&lt;span style=&quot;color: rgb(206, 145, 120);&quot;&gt;&quot;Too high, Try again&quot;&lt;/span&gt;&lt;/div&gt;" style="strokeWidth=2;html=1;shape=mxgraph.flowchart.display;whiteSpace=wrap;labelBackgroundColor=none;fontSize=10;fontColor=none;" parent="52" vertex="1">
                    <mxGeometry x="74" y="870" width="99" height="60" as="geometry"/>
                </mxCell>
                <mxCell id="20" style="edgeStyle=none;html=1;exitX=0.5;exitY=1;exitDx=0;exitDy=0;exitPerimeter=0;fontSize=10;fontColor=none;" parent="52" source="17" target="19" edge="1">
                    <mxGeometry relative="1" as="geometry"/>
                </mxCell>
                <mxCell id="21" value="&lt;div style=&quot;color: rgb(204, 204, 204); font-family: Consolas, &amp;quot;Courier New&amp;quot;, monospace; font-size: 14px; line-height: 19px;&quot;&gt;&lt;span style=&quot;color: rgb(156, 220, 254);&quot;&gt;attempt&lt;/span&gt; &lt;span style=&quot;color: rgb(212, 212, 212);&quot;&gt;+=&lt;/span&gt; &lt;span style=&quot;color: rgb(181, 206, 168);&quot;&gt;1&lt;/span&gt;&lt;/div&gt;" style="rounded=1;whiteSpace=wrap;html=1;absoluteArcSize=1;arcSize=14;strokeWidth=2;labelBackgroundColor=none;fontSize=10;fontColor=none;" parent="52" vertex="1">
                    <mxGeometry x="60.5" y="960" width="129" height="40" as="geometry"/>
                </mxCell>
                <mxCell id="22" style="edgeStyle=none;html=1;exitX=0.5;exitY=1;exitDx=0;exitDy=0;exitPerimeter=0;entryX=0.5;entryY=0;entryDx=0;entryDy=0;fontSize=10;fontColor=none;" parent="52" source="19" target="21" edge="1">
                    <mxGeometry relative="1" as="geometry"/>
                </mxCell>
                <mxCell id="53" style="edgeStyle=none;html=1;exitX=0;exitY=0.5;exitDx=0;exitDy=0;exitPerimeter=0;entryX=0.5;entryY=0;entryDx=0;entryDy=0;entryPerimeter=0;fillColor=#1ba1e2;strokeColor=#006EAF;" edge="1" parent="1" source="17" target="25">
                    <mxGeometry relative="1" as="geometry">
                        <Array as="points">
                            <mxPoint x="280" y="810"/>
                            <mxPoint x="280" y="680"/>
                            <mxPoint x="150" y="680"/>
                        </Array>
                    </mxGeometry>
                </mxCell>
                <mxCell id="54" value="Stop" style="strokeWidth=2;html=1;shape=mxgraph.flowchart.start_1;whiteSpace=wrap;" vertex="1" parent="1">
                    <mxGeometry x="646.25" y="1080" width="70" height="40" as="geometry"/>
                </mxCell>
                <mxCell id="55" style="edgeStyle=none;html=1;exitX=0.5;exitY=1;exitDx=0;exitDy=0;entryX=0.5;entryY=0;entryDx=0;entryDy=0;entryPerimeter=0;" edge="1" parent="1" source="42" target="54">
                    <mxGeometry relative="1" as="geometry"/>
                </mxCell>
            </root>
        </mxGraphModel>
    </diagram>
</mxfile>